        <svg
          xmlns="http://www.w3.org/2000/svg"
          width="87.51"
          height="87.51"
          viewBox="0 0 87.51 87.51"
        >
          <path
            fill="currentColor"
            d="M70.48,13.59a1.41,1.41,0,0,1,1.45,1.35,1.46,1.46,0,0,1-1.38,1.45A1.4,1.4,0,0,1,69.12,15,1.37,1.37,0,0,1,70.48,13.59Z"
          />
          <path
            fill="currentColor"
            d="M77.51,15a1.44,1.44,0,0,1-1.41,1.41A1.4,1.4,0,0,1,74.72,15a1.33,1.33,0,0,1,1.39-1.38A1.38,1.38,0,0,1,77.51,15Z"
          />
          <path
            fill="currentColor"
            d="M66.33,15a1.41,1.41,0,1,1-2.81,0,1.41,1.41,0,0,1,2.81,0Z"
          />
          <path
            fill="currentColor"
            d="M18.14,19.17h7.35c1.08,0,1.75.54,1.74,1.4S26.57,22,25.49,22H10.7a1.46,1.46,0,0,1-1.53-.86,1.25,1.25,0,0,1,.34-1.56,2.2,2.2,0,0,1,1.19-.37C13.18,19.15,15.66,19.17,18.14,19.17Z"
          />
          <path
            fill="currentColor"
            d="M34.16,22.64c-1,.87-1.78.95-2.4.3s-.49-1.37.37-2.35c-.85-1.1-.94-1.73-.33-2.38s1.26-.56,2.43.28c1-.85,1.64-1,2.29-.38s.59,1.34-.22,2.44c.78,1.12.86,1.79.27,2.38S35.25,23.45,34.16,22.64Z"
          />
          <path
            fill="currentColor"
            d="M80.26,73a7.3,7.3,0,0,0,7.29-7.29V12.59A7.3,7.3,0,0,0,80.26,5.3H7.38a7.3,7.3,0,0,0-7.29,7.3V65.66A7.3,7.3,0,0,0,7.38,73H29.25v5.83H24.87a4.37,4.37,0,0,0-4.37,4.37V84.6h-19A1.46,1.46,0,0,0,.05,86.06,1.45,1.45,0,0,0,1.5,87.52H86.06a1.46,1.46,0,0,0,0-2.92h-19V83.16a4.37,4.37,0,0,0-4.37-4.37H58.4V73ZM7.37,8.21H80.26a4.36,4.36,0,0,1,4.37,4.37h0v7.94H44.47c-1.46,0-1.85-.4-1.86-1.84,0-.84,0-1.69,0-2.53a4.14,4.14,0,0,0-4.33-4H3A4.35,4.35,0,0,1,7.37,8.21ZM3,15H37.76c1.58,0,2,.41,2,2v1.88a4.25,4.25,0,0,0,4.56,4.55H84.63v3.7H3ZM7.38,70A4.37,4.37,0,0,1,3,65.67H3V62.74h7.74a1.46,1.46,0,1,0,0-2.91H3V30H84.63v29.8H77a1.46,1.46,0,1,0,0,2.91h7.62v2.92A4.37,4.37,0,0,1,80.28,70H72.93a29.32,29.32,0,0,0-.2-10.75A28.46,28.46,0,0,0,58.4,39.46a29.38,29.38,0,0,0-35.37,5,29.76,29.76,0,0,0-8,25.61Zm10.55,0a26,26,0,0,1-.47-5A26.52,26.52,0,1,1,70,70H67.2a23,23,0,0,0,.52-4.87A23.75,23.75,0,0,0,20.23,65,24.23,24.23,0,0,0,20.76,70ZM62.77,81.7a1.46,1.46,0,0,1,1.46,1.46V84.6H23.41V83.16a1.46,1.46,0,0,1,1.46-1.46ZM44.06,58.08h11.7c.22,0,.44,0,.65,0a1.38,1.38,0,0,1,1.49,1.39,1.35,1.35,0,0,1-1.5,1.37c-1.28,0-2.56,0-3.84,0h-2.7c-1.19,0-1.68.5-1.7,1.7,0,1.47,0,3,0,4.42V70H45.4V68.47a4.12,4.12,0,0,0-.11-1,1.38,1.38,0,0,0-2.63,0,4.12,4.12,0,0,0-.11,1V70H39.8c0-2.44,0-4.89,0-7.33,0-1.4-.46-1.85-1.86-1.86H31.71c-1.08,0-1.66-.49-1.66-1.37s.61-1.39,1.65-1.4ZM41.2,52.52A2.78,2.78,0,1,1,44,55.27,2.79,2.79,0,0,1,41.2,52.52ZM55.48,73v5.83H32.16V73ZM51,70V63.67c1.9,0,3.7,0,5.49,0a4.19,4.19,0,1,0-.07-8.38H48.9c1.12-3.19.63-5.54-1.4-7.14a5.62,5.62,0,0,0-6.63-.31C38.56,49.37,38,51.52,39,55.28h-.9c-2.26,0-4.52,0-6.79,0a4.18,4.18,0,0,0-.12,8.36c1.55.05,3.1,0,4.66,0H37V70H23.64a20.95,20.95,0,1,1,40.67,0Z"
          />
        </svg>