<?xml version="1.0" encoding="utf-8"?>
<!-- Generator: Adobe Illustrator 26.0.1, SVG Export Plug-In . SVG Version: 6.00 Build 0)  -->
<svg version="1.1" baseProfile="tiny" id="Layer_1" xmlns="http://www.w3.org/2000/svg" xmlns:xlink="http://www.w3.org/1999/xlink"
	 x="0px" y="0px" width="225.8px" height="50px" viewBox="0 0 225.8 50" overflow="visible" xml:space="preserve">
<g>
	<path fill="#333399" d="M17.1,37L5.6,14.1v25.1H1.3V8.4h6.2l9.7,19.7l9.6-19.7H33v30.8h-4.4V14.1L17.1,37z"/>
	<path fill="#333399" d="M43.9,41.3l0.9-2l-8.9-22.5h4.8l6.6,17.1l7.2-17.1h4.8L48.4,41.9c-1,2.4-2.2,4.1-3.5,5.1
		c-1.3,1-3,1.6-5.1,1.6c-0.5,0-0.9,0-1.3-0.1s-0.7-0.1-1-0.2v-3.9c0.3,0.1,0.6,0.1,0.9,0.1c0.3,0,0.7,0,1.1,0c1,0,1.9-0.3,2.6-0.8
		S43.4,42.4,43.9,41.3z"/>
	<path fill="#333399" d="M78.5,37L67.8,16.5v22.7h-5.9V8.4h8.2l8.4,16.5L87,8.4h8.2v30.8h-6V16.6L78.5,37z"/>
	<path fill="#333399" d="M99.3,27.8c0-1.7,0.3-3.2,0.9-4.7s1.5-2.7,2.6-3.8c1.1-1.1,2.4-1.9,3.9-2.5c1.5-0.6,3.1-0.9,4.8-0.9
		s3.3,0.3,4.8,0.9c1.5,0.6,2.8,1.5,3.9,2.5c1.1,1.1,2,2.3,2.6,3.8s0.9,3,0.9,4.7c0,1.7-0.3,3.2-0.9,4.7s-1.5,2.7-2.6,3.8
		c-1.1,1.1-2.4,1.9-3.9,2.5c-1.5,0.6-3.1,0.9-4.8,0.9s-3.3-0.3-4.8-0.9c-1.5-0.6-2.8-1.5-3.9-2.5c-1.1-1.1-2-2.3-2.6-3.8
		S99.3,29.4,99.3,27.8z M111.5,34.4c1.8,0,3.3-0.6,4.5-1.9c1.2-1.3,1.8-2.9,1.8-4.7c0-1.9-0.6-3.5-1.8-4.8c-1.2-1.3-2.7-1.9-4.5-1.9
		s-3.3,0.6-4.5,1.9c-1.2,1.3-1.8,2.9-1.8,4.8c0,1.8,0.6,3.4,1.8,4.7C108.3,33.8,109.8,34.4,111.5,34.4z"/>
	<path fill="#333399" d="M127.2,39.2V16.3h6v1.8c0.9-0.7,1.9-1.3,2.9-1.7c1.1-0.4,2.2-0.6,3.5-0.6c2.6,0,4.8,0.9,6.5,2.6
		c1.7,1.7,2.6,3.9,2.6,6.6v14.3h-6V25.8c0-1.4-0.4-2.6-1.3-3.5c-0.9-0.9-2-1.3-3.5-1.3c-1,0-1.9,0.2-2.7,0.6c-0.8,0.4-1.5,1-2,1.7
		v15.9H127.2z"/>
	<path fill="#333399" d="M156.2,13.5c-0.9,0-1.7-0.3-2.4-1c-0.7-0.7-1-1.5-1-2.4c0-0.9,0.3-1.7,1-2.4c0.7-0.7,1.5-1,2.4-1
		c0.9,0,1.7,0.3,2.4,1c0.7,0.7,1,1.5,1,2.4c0,0.9-0.3,1.7-1,2.4C157.9,13.2,157.1,13.5,156.2,13.5z M159.2,16.3v22.9h-6V16.3H159.2z
		"/>
	<path fill="#333399" d="M166.5,32.7V21.3h-4.7v-5.1h4.7v-5.9l6-1.4v7.2h6.5v5.1h-6.5v10.2c0,1.1,0.2,1.8,0.7,2.3
		c0.5,0.4,1.3,0.7,2.5,0.7c0.6,0,1.1,0,1.6-0.1c0.5-0.1,1-0.2,1.6-0.4v4.9c-0.6,0.2-1.4,0.4-2.3,0.5c-0.9,0.1-1.7,0.2-2.3,0.2
		c-2.6,0-4.5-0.6-5.8-1.7C167.1,36.7,166.5,35,166.5,32.7z"/>
	<path fill="#333399" d="M180.6,27.8c0-1.7,0.3-3.2,0.9-4.7s1.5-2.7,2.6-3.8c1.1-1.1,2.4-1.9,3.9-2.5c1.5-0.6,3.1-0.9,4.8-0.9
		s3.3,0.3,4.8,0.9c1.5,0.6,2.8,1.5,3.9,2.5c1.1,1.1,2,2.3,2.6,3.8s0.9,3,0.9,4.7c0,1.7-0.3,3.2-0.9,4.7s-1.5,2.7-2.6,3.8
		c-1.1,1.1-2.4,1.9-3.9,2.5c-1.5,0.6-3.1,0.9-4.8,0.9s-3.3-0.3-4.8-0.9c-1.5-0.6-2.8-1.5-3.9-2.5c-1.1-1.1-2-2.3-2.6-3.8
		S180.6,29.4,180.6,27.8z M192.8,34.4c1.8,0,3.3-0.6,4.5-1.9c1.2-1.3,1.8-2.9,1.8-4.7c0-1.9-0.6-3.5-1.8-4.8
		c-1.2-1.3-2.7-1.9-4.5-1.9s-3.3,0.6-4.5,1.9c-1.2,1.3-1.8,2.9-1.8,4.8c0,1.8,0.6,3.4,1.8,4.7C189.6,33.8,191.1,34.4,192.8,34.4z"/>
	<path fill="#333399" d="M208.5,39.2V16.3h6v2.5c0.7-1,1.6-1.8,2.7-2.3c1-0.5,2.2-0.8,3.5-0.8c0.6,0,1.1,0.1,1.5,0.2
		c0.4,0.1,0.7,0.2,1,0.4v5.3c-0.4-0.2-0.9-0.4-1.5-0.5c-0.5-0.1-1.1-0.2-1.6-0.2c-1.2,0-2.3,0.3-3.2,0.9c-1,0.6-1.8,1.4-2.3,2.6
		v14.8H208.5z"/>
</g>
</svg>
